<svg viewBox="0 0 1269 351" xmlns="http://www.w3.org/2000/svg">
    <g fill="none" fill-rule="evenodd">
        <path d="M175.011 350.751c96.65 0 175-78.35 175-175s-78.35-175-175-175-175 78.35-175 175 78.35 175 175 175z" fill="#FFD355"/>
        <path d="M207.495 55.567l-34.454-35.425c-.398-.409-.88-.3-1.082.234l-22.11 58.142c-.203.536-.116 1.35.195 1.819l20.766 31.358c.31.468.445 1.293.298 1.84l-1.63 6.085c-.146.543-.598 1.304-1.008 1.694l-15.755 14.963c-4.115 3.908-9.123 11.356-11.195 16.642 0 0-40.197 100.503-39.973 130.641.215 28.808 32.09 36.52 34.905 37.144 2.75.866 34.21 10.126 48.8-14.715 15.264-25.989 30.704-133.125 30.704-133.125.849-5.614.235-14.568-1.374-20.01l-6.163-20.836c-.16-.543-.171-1.427-.026-1.97l1.631-6.086c.146-.546.676-1.194 1.178-1.444l33.663-16.774c.504-.251.986-.911 1.078-1.477l9.924-61.408c.091-.565-.271-.899-.82-.744l-47.552 13.452z" fill="#000"/>
        <text font-family="GoboldBold-Italic, Gobold Bold" font-size="130" font-style="italic" font-weight="bold" fill="#000" transform="translate(-.688)">
            <tspan x="376.367" y="179.751">WEB NOT</tspan> <tspan x="855.742" y="179.751" font-size="100"> </tspan> <tspan x="880.547" y="179.751">BOMBS</tspan>
        </text>
        <text fill="#000" font-family="GoboldThin-Italic, Gobold Thin" font-size="90" font-style="italic" transform="translate(-.688)">
            <tspan x="402.042" y="317.751">MORNING TALKS</tspan>
        </text>
    </g>
</svg>
