<svg viewBox="0 0 351 351" xmlns="http://www.w3.org/2000/svg">
    <g fill="none" fill-rule="evenodd">
        <path d="M175.843 350.602c96.65 0 175-78.35 175-175s-78.35-175-175-175-175 78.35-175 175 78.35 175 175 175z" fill="#FFD355"/>
        <path d="M208.184 55.736L173.73 20.311c-.398-.409-.879-.3-1.082.234l-22.11 58.143c-.203.535-.116 1.348.195 1.818l20.766 31.358c.31.468.445 1.293.298 1.84l-1.63 6.085c-.146.543-.598 1.304-1.008 1.694l-15.755 14.963c-4.115 3.908-9.123 11.356-11.195 16.642 0 0-40.197 100.503-39.973 130.642.215 28.808 32.09 36.519 34.905 37.143 2.75.867 34.21 10.127 48.8-14.715 15.264-25.989 30.704-133.125 30.704-133.125.849-5.614.235-14.567-1.374-20.01l-6.163-20.836c-.16-.542-.171-1.427-.025-1.97l1.63-6.086c.146-.546.676-1.193 1.178-1.444l33.663-16.774c.504-.251.986-.911 1.078-1.477l9.924-61.408c.091-.564-.271-.899-.82-.744l-47.552 13.452z" fill="#000"/>
    </g>
</svg>
