<svg viewBox="0 0 351 351" xmlns="http://www.w3.org/2000/svg">
    <g fill="none" fill-rule="evenodd">
        <path d="M175.664 350.6c96.65 0 175-78.35 175-175s-78.35-175-175-175-175 78.35-175 175 78.35 175 175 175z" fill="#D8D8D8"/>
        <path d="M208.005 55.332L173.55 19.907c-.398-.41-.879-.301-1.082.234l-22.11 58.142c-.203.536-.115 1.349.196 1.819l20.765 31.358c.31.468.445 1.293.299 1.84l-1.63 6.084c-.147.544-.598 1.305-1.009 1.694l-15.755 14.964c-4.115 3.908-9.123 11.355-11.194 16.642 0 0-40.198 100.502-39.973 130.641.214 28.808 32.09 36.52 34.905 37.144 2.75.866 34.21 10.126 48.8-14.715 15.264-25.989 30.703-133.125 30.703-133.125.85-5.614.236-14.568-1.374-20.01l-6.163-20.836c-.16-.543-.17-1.428-.025-1.971l1.63-6.085c.147-.546.676-1.194 1.178-1.444l33.663-16.774c.504-.252.987-.912 1.078-1.478l9.924-61.407c.091-.565-.271-.9-.82-.744l-47.551 13.452z" fill="#000"/>
    </g>
</svg>
