<svg viewBox="0 0 1401 351" xmlns="http://www.w3.org/2000/svg">
    <g fill="none" fill-rule="evenodd">
        <path d="M175.011 350.751c96.65 0 175-78.35 175-175s-78.35-175-175-175-175 78.35-175 175 78.35 175 175 175z" fill="#FFD355"/>
        <path d="M207.495 55.567l-34.454-35.425c-.398-.409-.88-.3-1.082.234l-22.11 58.142c-.203.536-.116 1.35.195 1.819l20.766 31.358c.31.468.445 1.293.298 1.84l-1.63 6.085c-.146.543-.598 1.304-1.008 1.694l-15.755 14.963c-4.115 3.908-9.123 11.356-11.195 16.642 0 0-40.197 100.503-39.973 130.641.215 28.808 32.09 36.52 34.905 37.144 2.75.866 34.21 10.126 48.8-14.715 15.264-25.989 30.704-133.125 30.704-133.125.849-5.614.235-14.568-1.374-20.01l-6.163-20.836c-.16-.543-.171-1.427-.026-1.97l1.631-6.086c.146-.546.676-1.194 1.178-1.444l33.663-16.774c.504-.251.986-.911 1.078-1.477l9.924-61.408c.091-.565-.271-.899-.82-.744l-47.552 13.452zM476.182 211.27l36.622-109.57h25.06l-18.422 53.409-35.428 95.51h-32.221l7.831-80.633-26.403 80.634H401l5.221-95.66 4.251-53.26h24.986L425.39 211.27l36.622-109.57h24.24l-10.069 109.57zm72.834-109.57h58.475l-5.071 23.73H568.78l-8.204 38.828h28.94l-5.073 23.804h-28.939l-8.279 38.829h33.638l-5.071 23.729h-58.475l31.698-148.92zm72.61 0h34.385c16.26.05 24.39 7.166 24.39 21.349 0 3.273-.424 6.893-1.269 10.86l-4.624 21.944c-2.188 10.116-6.961 16.885-14.32 20.307 4.325 2.48 6.488 6.77 6.488 12.869 0 2.231-.298 4.71-.895 7.438l-4.624 22.018c-4.575 21.374-17.279 32.085-38.113 32.135h-33.116l31.699-148.92zm19.766 23.73l-8.204 38.828h4.773c2.685 0 4.45-.148 5.296-.446 3.38-1.24 5.519-3.893 6.414-7.96l4.624-21.943c.249-1.09.373-2.083.373-2.975 0-3.67-1.964-5.505-5.892-5.505h-7.384zm-13.276 62.632l-8.28 38.829h7.385c4.873 0 7.906-2.802 9.1-8.406l4.623-22.018c.2-.942.299-1.835.299-2.678 0-2.578-1.094-4.314-3.282-5.207-.746-.347-2.436-.52-5.072-.52h-4.773zM737.983 101.7h24.539l.97 73.344L779.08 101.7h23.27l-31.699 148.92h-24.538l-.597-71.336-15.215 71.336h-24.017l31.699-148.92zM858.04 220.791c-4.81 21.423-18.505 32.16-41.088 32.209-18.557 0-27.836-7.29-27.836-21.87 0-3.123.418-6.57 1.254-10.339l19.996-89.262c4.809-21.423 18.478-32.135 41.009-32.135 18.61 0 27.915 7.29 27.915 21.87 0 3.074-.419 6.496-1.255 10.265L858.04 220.79zm-6.157-89.141c.27-1.107.406-2.113.406-3.018 0-3.622-2.138-5.458-6.415-5.509h-.163c-5.25 0-8.526 2.842-9.825 8.527l-20.707 90.545c-.27 1.107-.406 2.113-.406 3.019 0 3.672 2.139 5.508 6.415 5.508 5.36 0 8.689-2.842 9.988-8.527l20.707-90.545zm265.911 87.747c-4.81 21.423-18.505 32.159-41.088 32.209-18.557 0-27.836-7.29-27.836-21.87 0-3.124.418-6.57 1.255-10.34l19.995-89.262c4.809-21.423 18.479-32.134 41.01-32.134 18.609 0 27.914 7.29 27.914 21.87 0 3.074-.418 6.496-1.255 10.264l-19.995 89.263zm-4.774-89.142c.28-1.106.42-2.112.42-3.018 0-3.622-2.217-5.458-6.653-5.508h-.169c-5.447 0-8.844 2.842-10.191 8.526l-21.478 90.546c-.281 1.107-.422 2.113-.422 3.018 0 3.672 2.218 5.508 6.654 5.508 5.56 0 9.013-2.842 10.36-8.526l21.479-90.546zM954.68 101.7l-5.072 23.73h-19.765l-26.627 125.19h-24.837l26.627-125.19H885.24l5.071-23.73h64.368zm43.806 0h34.384c16.26.05 24.39 7.166 24.39 21.349 0 3.273-.423 6.893-1.268 10.86l-4.625 21.944c-2.188 10.116-6.961 16.885-14.32 20.307 4.326 2.48 6.489 6.77 6.489 12.869 0 2.231-.299 4.71-.895 7.438l-4.625 22.018c-4.574 21.374-17.278 32.085-38.113 32.135h-33.116l31.7-148.92zm19.765 23.73l-8.204 38.828h4.773c2.685 0 4.45-.148 5.296-.446 3.381-1.24 5.52-3.893 6.414-7.96l4.625-21.943c.248-1.09.373-2.083.373-2.975 0-3.67-1.965-5.505-5.893-5.505h-7.384zm-11.748 62.632l-8.28 38.829h7.385c4.873 0 7.906-2.802 9.099-8.406l4.624-22.018c.2-.942.299-1.835.299-2.678 0-2.578-1.094-4.314-3.282-5.207-.746-.347-2.437-.52-5.072-.52h-4.773zm176.475 12.348l44.005-98.71h24.539l-31.699 148.92h-23.942l14.619-68.51-29.238 68.51h-17.453l-.447-68.955-14.694 68.955h-24.165l31.699-148.92h24.538l2.238 98.71zm83.353-98.71h34.384c16.26.05 24.39 7.166 24.39 21.349 0 3.273-.423 6.893-1.268 10.86l-4.624 21.944c-2.188 10.116-6.962 16.885-14.32 20.307 4.325 2.48 6.488 6.77 6.488 12.869 0 2.231-.298 4.71-.895 7.438l-4.624 22.018c-4.575 21.374-17.28 32.085-38.113 32.135h-33.116l31.698-148.92zm19.766 23.73l-8.205 38.828h4.774c2.685 0 4.45-.148 5.295-.446 3.381-1.24 5.52-3.893 6.415-7.96L1299 133.91c.249-1.09.373-2.083.373-2.975 0-3.67-1.964-5.505-5.892-5.505h-7.384zm-13.277 62.632l-8.279 38.829h7.384c4.873 0 7.906-2.802 9.1-8.406l4.624-22.018c.199-.942.298-1.835.298-2.678 0-2.578-1.093-4.314-3.281-5.207-.746-.347-2.437-.52-5.072-.52h-4.774zm62.62-56.533c4.574-21.423 17.577-32.135 39.008-32.135 17.701 0 26.552 7.29 26.552 21.87 0 3.074-.398 6.496-1.193 10.265l-4.475 21.125h-24.837l4.475-21.125c.248-1.091.373-2.083.373-2.975 0-3.571-1.964-5.381-5.893-5.43h-.149c-4.823 0-7.831 2.801-9.025 8.405l-2.834 13.24a8.882 8.882 0 0 0-.224 2.009c0 5.703 4.823 12.62 14.47 20.753 9.298 7.736 13.947 16.712 13.947 26.928 0 2.579-.298 5.207-.895 7.885l-3.953 18.447C1376.213 242.264 1363.21 253 1341.78 253c-17.702-.05-26.552-7.364-26.552-21.944 0-3.074.398-6.496 1.193-10.265l4.475-21.125h24.837l-4.475 21.125c-.249 1.091-.373 2.083-.373 2.976 0 3.62 1.989 5.43 5.967 5.43 4.873 0 7.906-2.802 9.1-8.406l3.58-16.662c.149-.744.223-1.513.223-2.306 0-6.1-4.773-13.191-14.32-21.274-9.2-7.687-13.798-16.712-13.798-27.076 0-2.678.298-5.43.895-8.257l2.908-13.687z" fill="#000"/>
    </g>
</svg>
